<svg xmlns="http://www.w3.org/2000/svg" viewBox="0 0 440 300" width="440" height="300" role="img"><rect width="440" height="300" rx="26" fill="#EDF5F2"/><path d="M26.0 256.0 L414.0 256.0" fill="none" stroke="#BCD3CC" stroke-width="7" stroke-linecap="round" stroke-linejoin="round"/><path d="M275.5 200.0 L337.5 208.0 L319.5 242.0" fill="none" stroke="#93C3B7" stroke-width="20" stroke-linecap="round" stroke-linejoin="round"/><path d="M181.5 184.0 L149.5 170.0 L125.5 160.0" fill="none" stroke="#93C3B7" stroke-width="20" stroke-linecap="round" stroke-linejoin="round"/><path d="M183.5 188.0 L279.5 192.0" fill="none" stroke="#EDF5F2" stroke-width="51" stroke-linecap="round" stroke-linejoin="round"/><path d="M183.5 188.0 L279.5 192.0" fill="none" stroke="#0E7C66" stroke-width="40" stroke-linecap="round" stroke-linejoin="round"/><path d="M279.5 190.0 L341.5 174.0 L323.5 220.0" fill="none" stroke="#EDF5F2" stroke-width="33" stroke-linecap="round" stroke-linejoin="round"/><path d="M279.5 190.0 L341.5 174.0 L323.5 220.0" fill="none" stroke="#0E7C66" stroke-width="22" stroke-linecap="round" stroke-linejoin="round"/><path d="M189.5 184.0 L227.5 210.0 L263.5 234.0" fill="none" stroke="#EDF5F2" stroke-width="33" stroke-linecap="round" stroke-linejoin="round"/><path d="M189.5 184.0 L227.5 210.0 L263.5 234.0" fill="none" stroke="#0E7C66" stroke-width="22" stroke-linecap="round" stroke-linejoin="round"/><path d="M153.5 186.0 L183.5 188.0" fill="none" stroke="#0E7C66" stroke-width="21" stroke-linecap="round" stroke-linejoin="round"/><circle cx="102.9" cy="177.7" r="13" fill="#0E7C66"/><circle cx="127.5" cy="182.0" r="27" fill="#0E7C66"/><path d="M363.5 228.0 Q403.5 186.0 384.6 153.5" fill="none" stroke="#EDF5F2" stroke-width="20" stroke-linecap="round"/><polygon points="375.5,138.0 376.3,174.0 406.5,156.4" fill="#EDF5F2" stroke="#EDF5F2" stroke-width="2" stroke-linejoin="round"/><path d="M363.5 228.0 Q403.5 186.0 384.6 153.5" fill="none" stroke="#1A1A1A" stroke-width="9" stroke-linecap="round"/><polygon points="375.5,138.0 378.2,166.5 399.0,154.4" fill="#1A1A1A" stroke="#1A1A1A" stroke-width="2" stroke-linejoin="round"/></svg>